<svg xmlns="http://www.w3.org/2000/svg" width="24" height="24" viewBox="0 0 24 24" fill="none">
  <path d="M14 14.99L14 21.6C14 21.8209 14.1791 22 14.4 22L15.6 22C15.8209 22 16 21.8209 16 21.6L16 14.99L18.0326 14.99C18.3892 14.99 18.5676 14.5586 18.3151 14.3068L15.2825 11.2818C15.1264 11.126 14.8736 11.126 14.7175 11.2818L11.6849 14.3068C11.4324 14.5586 11.6108 14.99 11.9674 14.99L14 14.99ZM12.3151 9.6932C12.5676 9.44136 12.3892 9.01 12.0326 9.01L10 9.01L10 2.4C10 2.17909 9.82091 2 9.6 2L8.4 2C8.17909 2 8 2.17909 8 2.4L8 9.01L5.9674 9.01C5.61079 9.01 5.43244 9.44136 5.68491 9.6932L8.71751 12.7182C8.87364 12.874 9.12636 12.874 9.28249 12.7182L12.3151 9.6932Z" fill="#111827"/>
</svg>