<svg xmlns="http://www.w3.org/2000/svg" width="24" height="24" viewBox="0 0 24 24" fill="none">
  <path fill-rule="evenodd" clip-rule="evenodd" d="M5.8944 2.31136C6.03989 2.11551 6.26986 2 6.51429 2H17.4857C17.7301 2 17.9601 2.11551 18.1056 2.31136L20.8485 6.00367C20.9469 6.13616 21 6.29667 21 6.46154V6.8718V19.3846C21 20.0752 20.7284 20.7394 20.2419 21.2306C19.755 21.7221 19.0927 22 18.4 22H5.6C4.90732 22 4.24498 21.7221 3.75814 21.2306C3.27163 20.7394 3 20.0752 3 19.3846V6.8718V6.46154C3 6.29667 3.05312 6.13616 3.15154 6.00367L5.8944 2.31136ZM17.0971 3.53846L19.0019 6.10256H4.99811L6.90287 3.53846H17.0971ZM19.4571 7.64103H4.54286V19.3846C4.54286 19.6733 4.65653 19.9483 4.85586 20.1495C5.05488 20.3504 5.32274 20.4615 5.6 20.4615H18.4C18.6773 20.4615 18.9451 20.3504 19.1441 20.1495C19.3435 19.9483 19.4571 19.6733 19.4571 19.3846V7.64103ZM8.65714 9.94867C8.65714 9.52384 8.31176 9.17944 7.88571 9.17944C7.45967 9.17944 7.11429 9.52384 7.11429 9.94867C7.11429 11.2408 7.62903 12.4799 8.54528 13.3936C9.46153 14.3072 10.7042 14.8205 12 14.8205C13.2958 14.8205 14.5385 14.3072 15.4547 13.3936C16.371 12.4799 16.8857 11.2408 16.8857 9.94867C16.8857 9.52384 16.5403 9.17944 16.1143 9.17944C15.6882 9.17944 15.3429 9.52384 15.3429 9.94867C15.3429 10.8327 14.9907 11.6806 14.3638 12.3057C13.7368 12.9308 12.8866 13.282 12 13.282C11.1134 13.282 10.2632 12.9308 9.63624 12.3057C9.00934 11.6806 8.65714 10.8327 8.65714 9.94867Z" fill="#111827"/>
</svg>