<svg xmlns="http://www.w3.org/2000/svg" width="165" height="32" viewBox="0 0 165 32" fill="none">
  <path d="M32.6132 10.9513L38.7746 7.88021L32.1139 9.6182C31.3109 7.77431 30.1728 6.10188 28.7595 4.6892C25.6913 1.56307 21.9958 0 17.673 0H2.77939C2.6118 0.0102305 2.44491 0.0302495 2.27956 0.0599562C2.26607 0.068066 2.25106 0.073199 2.23549 0.0750098C1.76621 0.174225 1.33039 0.39625 0.970919 0.71923C0.858417 0.813854 0.755027 0.919182 0.662156 1.03381C0.224041 1.55447 -0.0113661 2.22081 0.000560425 2.90653V18.6963L32.3626 10.2321L32.2011 10.3219L32.1277 10.352L0.000560425 26.3217V29.0789C-0.0130696 29.7694 0.222328 30.441 0.662156 30.9664C0.755027 31.081 0.858417 31.1864 0.970919 31.281C1.33039 31.604 1.76621 31.826 2.23549 31.9252C2.25106 31.927 2.26607 31.9322 2.27956 31.9403C2.4449 31.97 2.61179 31.99 2.77939 32H17.6739C21.9969 32 25.6924 30.432 28.7604 27.296C31.8283 24.1702 33.3624 20.405 33.3625 16.0005C33.3756 14.2877 33.1227 12.5836 32.6132 10.9513Z" fill="#0078FF"/>
  <path d="M47.3961 24.6936C47.3085 24.6961 47.2213 24.6796 47.1405 24.645C47.0597 24.6105 46.987 24.5587 46.9274 24.4933C46.8666 24.4282 46.8191 24.3516 46.7874 24.2677C46.7557 24.1839 46.7405 24.0945 46.7428 24.0047V9.11801C46.7384 8.93668 46.8048 8.76099 46.9274 8.62943C46.9871 8.5641 47.0598 8.51248 47.1406 8.47802C47.2214 8.44356 47.3085 8.42704 47.3961 8.42958H53.022C55.3041 8.42958 57.1794 9.11088 58.648 10.4735C59.4234 11.2002 60.0273 12.0965 60.4143 13.095C60.8258 14.2022 61.0328 15.3773 61.0248 16.5611C61.0279 17.1759 60.9768 17.7896 60.8721 18.395C60.7734 18.9536 60.62 19.5006 60.4143 20.0279C60.0422 21.0408 59.4364 21.9475 58.648 22.6716C57.9216 23.3438 57.0682 23.858 56.1401 24.1827C55.1364 24.5306 54.0822 24.7033 53.022 24.6936H47.3961ZM50.4488 21.9385H53.0437C53.6233 21.9353 54.2009 21.8683 54.7664 21.7387C55.3433 21.6001 55.8806 21.3264 56.3355 20.9393C56.8496 20.5023 57.2532 19.9459 57.5124 19.3169C57.8176 18.6359 57.9702 17.725 57.9702 16.5842C58.0028 15.6437 57.847 14.7064 57.5124 13.8293C57.2532 13.2004 56.8496 12.644 56.3355 12.207C55.8692 11.8286 55.3248 11.5628 54.7433 11.4295C54.185 11.3005 53.6147 11.2334 53.0423 11.2294H50.4474C50.3598 11.2269 50.2727 11.2434 50.1919 11.2779C50.1111 11.3124 50.0384 11.3641 49.9787 11.4295C49.8561 11.561 49.7897 11.7368 49.7941 11.9183V21.2501C49.7896 21.4316 49.856 21.6075 49.9787 21.7391C50.0387 21.8045 50.1116 21.8561 50.1927 21.8905C50.2737 21.9249 50.361 21.9413 50.4488 21.9385Z" fill="#2A3042"/>
  <path d="M66.2797 24.6929H64.5571C64.4681 24.6936 64.3798 24.6763 64.2975 24.6419C64.2152 24.6076 64.1404 24.5568 64.0774 24.4927C64.0145 24.4286 63.9648 24.3524 63.9311 24.2685C63.8974 24.1846 63.8804 24.0947 63.8811 24.004V9.11729C63.8803 9.02662 63.8972 8.93667 63.9309 8.85274C63.9645 8.7688 64.0143 8.69256 64.0772 8.62846C64.1401 8.56435 64.215 8.51367 64.2974 8.4794C64.3798 8.44513 64.4681 8.42794 64.5571 8.42885H71.1425C71.909 8.42022 72.6704 8.55573 73.3885 8.82856C74.0265 9.10451 74.6102 9.49596 75.1112 9.98393C75.3567 10.2343 75.5758 10.5101 75.7652 10.8068C75.9564 11.1079 76.1172 11.4279 76.2449 11.7621C76.5114 12.4865 76.6444 13.2548 76.6372 14.0284C76.6702 15.1701 76.358 16.2946 75.743 17.2495C75.2842 17.9546 74.6628 18.5343 73.9331 18.9379C73.8602 18.9744 73.7955 19.0258 73.7429 19.0889C73.6904 19.152 73.6512 19.2255 73.6278 19.3047C73.6068 19.3838 73.6058 19.4671 73.6249 19.5467C73.644 19.6264 73.6825 19.6998 73.737 19.7601C74.2744 20.5011 74.7867 21.2009 75.2741 21.8595C75.7615 22.5181 76.2666 23.218 76.7895 23.9591C76.8442 24.026 76.8818 24.1056 76.8989 24.1908C76.9161 24.276 76.9122 24.3643 76.8878 24.4477C76.8657 24.5251 76.8175 24.592 76.7517 24.6368C76.6859 24.6815 76.6067 24.7012 76.5281 24.6924H74.3257C74.1202 24.6882 73.9186 24.6349 73.737 24.5368C73.5519 24.4481 73.3882 24.3192 73.2572 24.1592C73.0099 23.8187 72.7663 23.4817 72.5267 23.1482C72.287 22.8146 72.0435 22.4776 71.7963 22.1372L70.357 20.0707C70.231 19.9 70.0665 19.7629 69.8773 19.671C69.6955 19.5731 69.4939 19.5198 69.2884 19.5154H67.6093C67.5203 19.5145 67.432 19.5317 67.3496 19.5659C67.2672 19.6002 67.1924 19.6509 67.1294 19.715C67.0665 19.7792 67.0167 19.8555 66.9831 19.9394C66.9494 20.0234 66.9325 20.1133 66.9334 20.204V24.0033C66.9377 24.1846 66.8713 24.3603 66.7488 24.4919C66.6891 24.5574 66.6164 24.6093 66.5355 24.6439C66.4546 24.6786 66.3674 24.6953 66.2797 24.6929ZM67.6098 16.7612H71.1425C71.4342 16.7552 71.7223 16.695 71.9927 16.5835C72.2956 16.476 72.5714 16.3015 72.8003 16.0725C73.0349 15.8259 73.2267 15.5404 73.3673 15.2282C73.5255 14.8497 73.6 14.4403 73.5854 14.0291C73.5835 13.7455 73.5543 13.4627 73.4982 13.1848C73.4688 13.0219 73.425 12.862 73.3673 12.7071C73.3088 12.5516 73.2434 12.3998 73.1709 12.2516C72.9853 11.9442 72.7314 11.6855 72.4297 11.4964C72.0371 11.2742 71.592 11.1666 71.1432 11.1854H67.6105C67.5215 11.1845 67.4332 11.2017 67.3508 11.2359C67.2684 11.2702 67.1935 11.3209 67.1306 11.385C67.0676 11.4492 67.0179 11.5255 66.9842 11.6094C66.9506 11.6934 66.9337 11.7833 66.9346 11.874V16.0732C66.9337 16.1639 66.9506 16.2539 66.9842 16.3379C67.0179 16.4218 67.0676 16.4981 67.1306 16.5622C67.1935 16.6264 67.2684 16.6771 67.3508 16.7113C67.4332 16.7456 67.5215 16.7628 67.6105 16.7619L67.6098 16.7612Z" fill="#2A3042"/>
  <path d="M82.3941 24.6929H80.6712C80.5836 24.6954 80.4965 24.6789 80.4156 24.6443C80.3348 24.6098 80.2621 24.5581 80.2025 24.4926C80.1418 24.4275 80.0942 24.3509 80.0625 24.267C80.0308 24.1832 80.0157 24.0938 80.0179 24.004V9.14082C80.0135 8.95941 80.0799 8.78363 80.2025 8.65202C80.2622 8.58668 80.3349 8.53507 80.4157 8.50061C80.4965 8.46614 80.5836 8.44962 80.6712 8.45216H82.3941C82.4831 8.45125 82.5714 8.46844 82.6538 8.50273C82.7362 8.53701 82.811 8.5877 82.874 8.65183C82.9369 8.71596 82.9867 8.79225 83.0203 8.87621C83.054 8.96018 83.0709 9.05013 83.07 9.14082V24.0043C83.0707 24.0949 83.0537 24.1848 83.02 24.2687C82.9862 24.3526 82.9365 24.4288 82.8736 24.4929C82.8107 24.557 82.7359 24.6077 82.6536 24.6421C82.5712 24.6765 82.483 24.6939 82.3941 24.6932V24.6929Z" fill="#2A3042"/>
  <path d="M100.558 9.07394L93.5805 24.4036C93.5386 24.4779 93.4783 24.5395 93.4055 24.5824C93.3328 24.6253 93.2502 24.6479 93.1662 24.6479C93.0821 24.6479 92.9996 24.6253 92.9268 24.5824C92.8541 24.5395 92.7937 24.4779 92.7519 24.4036L85.7958 9.07394C85.7595 9.0057 85.7405 8.92933 85.7405 8.85175C85.7405 8.77416 85.7595 8.6978 85.7958 8.62956C85.8362 8.56882 85.892 8.52029 85.9572 8.48903C86.0224 8.45776 86.0946 8.4449 86.1663 8.45181H88.1945C88.3961 8.45573 88.5924 8.51733 88.7613 8.62956C88.9352 8.73131 89.0726 8.88701 89.1536 9.07394L92.8818 17.2499C92.9542 17.4131 93.0488 17.4942 93.1651 17.4942C93.2814 17.4942 93.3758 17.4131 93.4485 17.2499L97.1776 9.07394C97.2582 8.88676 97.3957 8.73096 97.5699 8.62956C97.7387 8.51717 97.9351 8.45557 98.1367 8.45181H100.165C100.24 8.44342 100.315 8.45546 100.384 8.48669C100.453 8.51791 100.513 8.56721 100.557 8.62956C100.593 8.69772 100.612 8.77401 100.613 8.85157C100.613 8.92914 100.594 9.00554 100.558 9.07394Z" fill="#2A3042"/>
  <path d="M105.77 11.8734V14.5617C105.769 14.6524 105.785 14.7424 105.819 14.8264C105.853 14.9103 105.903 14.9866 105.966 15.0508C106.029 15.1149 106.103 15.1656 106.186 15.1999C106.268 15.2341 106.357 15.2513 106.446 15.2503H112.813C112.902 15.2494 112.99 15.2666 113.073 15.3009C113.155 15.3352 113.23 15.3859 113.293 15.4501C113.356 15.5143 113.406 15.5906 113.439 15.6746C113.473 15.7585 113.49 15.8485 113.489 15.9393V17.3833C113.49 17.474 113.473 17.564 113.439 17.6479C113.405 17.7319 113.356 17.8082 113.293 17.8723C113.23 17.9365 113.155 17.9871 113.073 18.0214C112.99 18.0557 112.902 18.0729 112.813 18.072H106.446C106.357 18.0711 106.268 18.0882 106.186 18.1225C106.103 18.1568 106.029 18.2075 105.966 18.2716C105.903 18.3357 105.853 18.412 105.819 18.496C105.785 18.58 105.769 18.67 105.77 18.7607V21.2045C105.769 21.2952 105.785 21.3852 105.819 21.4692C105.853 21.5532 105.903 21.6295 105.965 21.6937C106.028 21.7579 106.103 21.8086 106.186 21.8429C106.268 21.8771 106.357 21.8943 106.446 21.8934H113.794C113.883 21.8926 113.971 21.9099 114.054 21.9443C114.136 21.9786 114.211 22.0293 114.274 22.0934C114.337 22.1575 114.386 22.2337 114.42 22.3176C114.454 22.4015 114.471 22.4914 114.47 22.582V24.004C114.471 24.0947 114.454 24.1846 114.42 24.2685C114.386 24.3524 114.337 24.4286 114.274 24.4927C114.211 24.5568 114.136 24.6075 114.054 24.6419C113.971 24.6763 113.883 24.6936 113.794 24.6929H103.393C103.304 24.6936 103.215 24.6763 103.133 24.6419C103.051 24.6076 102.976 24.5569 102.913 24.4927C102.85 24.4286 102.8 24.3524 102.767 24.2685C102.733 24.1846 102.716 24.0947 102.717 24.004V9.1173C102.716 9.02663 102.733 8.93669 102.766 8.85275C102.8 8.76882 102.85 8.69258 102.913 8.62847C102.976 8.56436 103.051 8.51368 103.133 8.47941C103.215 8.44514 103.304 8.42796 103.393 8.42887H113.794C113.883 8.42793 113.971 8.4451 114.054 8.47935C114.136 8.51361 114.211 8.56428 114.274 8.62838C114.337 8.69249 114.387 8.76876 114.42 8.85271C114.454 8.93666 114.471 9.02661 114.47 9.1173V10.4949C114.471 10.5855 114.454 10.6754 114.42 10.7594C114.387 10.8433 114.337 10.9195 114.274 10.9837C114.211 11.0478 114.136 11.0985 114.054 11.1328C113.971 11.1672 113.883 11.1845 113.794 11.1838H106.446C106.357 11.1828 106.268 11.2 106.186 11.2343C106.103 11.2685 106.029 11.3192 105.966 11.3833C105.903 11.4475 105.853 11.5238 105.819 11.6077C105.785 11.6917 105.769 11.7817 105.77 11.8724V11.8734Z" fill="#2A3042"/>
  <path d="M131.566 9.1173V24.0031C131.567 24.0937 131.55 24.1836 131.516 24.2675C131.482 24.3514 131.433 24.4277 131.37 24.4918C131.307 24.5559 131.232 24.6066 131.15 24.641C131.067 24.6754 130.979 24.6927 130.89 24.692H129.189C129.1 24.6927 129.012 24.6754 128.93 24.641C128.847 24.6066 128.772 24.5559 128.71 24.4918C128.647 24.4277 128.597 24.3514 128.563 24.2675C128.529 24.1836 128.512 24.0937 128.513 24.0031V18.9163C128.514 18.8256 128.497 18.7357 128.464 18.6517C128.43 18.5677 128.38 18.4914 128.317 18.4273C128.254 18.3632 128.179 18.3125 128.097 18.2782C128.015 18.2439 127.926 18.2267 127.837 18.2276H121.317C121.228 18.2267 121.14 18.2439 121.058 18.2781C120.975 18.3124 120.9 18.3631 120.837 18.4272C120.774 18.4914 120.725 18.5677 120.691 18.6516C120.657 18.7356 120.64 18.8256 120.641 18.9163V24.004C120.642 24.0947 120.625 24.1846 120.591 24.2685C120.558 24.3524 120.508 24.4286 120.445 24.4927C120.382 24.5569 120.307 24.6076 120.225 24.6419C120.143 24.6763 120.054 24.6936 119.965 24.6929H118.265C118.176 24.6937 118.087 24.6764 118.005 24.642C117.923 24.6077 117.848 24.5569 117.785 24.4928C117.722 24.4287 117.672 24.3525 117.639 24.2685C117.605 24.1846 117.588 24.0947 117.589 24.004V9.1173C117.588 9.02661 117.605 8.93666 117.638 8.85271C117.672 8.76876 117.722 8.69249 117.785 8.62838C117.848 8.56428 117.923 8.51361 118.005 8.47935C118.087 8.4451 118.176 8.42793 118.265 8.42887H119.965C120.054 8.42796 120.143 8.44514 120.225 8.47941C120.307 8.51368 120.382 8.56436 120.445 8.62847C120.508 8.69258 120.558 8.76882 120.592 8.85275C120.625 8.93669 120.642 9.02663 120.641 9.1173V14.7836C120.64 14.8743 120.657 14.9643 120.691 15.0483C120.725 15.1323 120.774 15.2086 120.837 15.2727C120.9 15.3368 120.975 15.3875 121.058 15.4218C121.14 15.4561 121.228 15.4732 121.317 15.4723H127.837C127.926 15.4732 128.015 15.456 128.097 15.4217C128.179 15.3874 128.254 15.3368 128.317 15.2726C128.38 15.2085 128.43 15.1322 128.464 15.0483C128.497 14.9643 128.514 14.8743 128.513 14.7836V9.1173C128.512 9.02663 128.529 8.93669 128.563 8.85275C128.597 8.76882 128.646 8.69258 128.709 8.62847C128.772 8.56436 128.847 8.51368 128.929 8.47941C129.012 8.44514 129.1 8.42796 129.189 8.42887H130.89C130.979 8.42796 131.067 8.44514 131.15 8.47941C131.232 8.51368 131.307 8.56436 131.37 8.62847C131.433 8.69258 131.483 8.76882 131.516 8.85275C131.55 8.93669 131.567 9.02663 131.566 9.1173Z" fill="#2A3042"/>
  <path d="M139.089 24.4925C138.282 24.1939 137.546 23.7246 136.93 23.1154C136.312 22.5124 135.835 21.776 135.534 20.9603C135.202 20.0589 135.039 19.1017 135.055 18.1389V9.14073C135.053 9.04992 135.069 8.95969 135.103 8.87562C135.137 8.79154 135.187 8.7154 135.251 8.65192C135.31 8.5885 135.381 8.53805 135.46 8.50368C135.538 8.46931 135.623 8.45174 135.709 8.45206H137.431C137.52 8.45112 137.609 8.46829 137.691 8.50256C137.773 8.53683 137.848 8.58753 137.911 8.65166C137.974 8.7158 138.024 8.79208 138.058 8.87606C138.091 8.96004 138.108 9.05002 138.107 9.14073V18.1166C138.083 18.8124 138.217 19.5045 138.5 20.1386C138.734 20.6213 139.06 21.0518 139.459 21.4049C139.823 21.7089 140.247 21.9288 140.702 22.0494C140.934 22.1087 141.149 22.1531 141.345 22.1827C141.529 22.2115 141.715 22.2264 141.901 22.2271C142.299 22.2159 142.694 22.1562 143.078 22.0494C143.538 21.941 143.965 21.7197 144.321 21.4049C144.737 21.0633 145.073 20.6305 145.303 20.1386C145.585 19.5045 145.719 18.8124 145.695 18.1166V9.14073C145.694 9.05004 145.711 8.96008 145.744 8.87612C145.778 8.79216 145.828 8.71587 145.891 8.65174C145.954 8.5876 146.029 8.53692 146.111 8.50263C146.193 8.46835 146.282 8.45115 146.371 8.45206H148.072C148.161 8.45115 148.249 8.46835 148.331 8.50263C148.414 8.53692 148.489 8.5876 148.552 8.65174C148.615 8.71587 148.664 8.79216 148.698 8.87612C148.732 8.96008 148.748 9.05004 148.748 9.14073V18.1387C148.749 18.6337 148.709 19.128 148.628 19.6159C148.55 20.0747 148.429 20.5248 148.268 20.9603C147.962 21.7681 147.494 22.502 146.894 23.1154C146.273 23.7182 145.539 24.1867 144.735 24.4925C143.828 24.8325 142.867 24.9983 141.901 24.9816C140.942 24.9997 139.988 24.8338 139.089 24.4925Z" fill="#2A3042"/>
  <path d="M163.729 14.0061C163.596 14.3673 163.42 14.7105 163.205 15.0282C162.984 15.3423 162.702 15.6069 162.377 15.8057C162.221 15.9151 162.053 16.0047 161.875 16.0725C161.73 16.1171 161.665 16.1504 161.679 16.1725C161.759 16.2226 161.848 16.2565 161.941 16.2724C162.144 16.3467 162.333 16.4208 162.508 16.4946C162.899 16.698 163.247 16.9776 163.533 17.3175C163.854 17.6607 164.112 18.0595 164.296 18.4952C164.487 18.9359 164.584 19.4129 164.579 19.8946C164.6 20.6694 164.467 21.4403 164.187 22.1612C163.954 22.738 163.588 23.2487 163.119 23.6495C162.668 24.0426 162.129 24.3171 161.549 24.4489C161.244 24.5232 160.931 24.5825 160.611 24.6268C160.279 24.6722 159.944 24.6945 159.609 24.6936H152.914C152.825 24.6943 152.737 24.677 152.655 24.6426C152.572 24.6083 152.497 24.5576 152.435 24.4934C152.372 24.4293 152.322 24.3531 152.288 24.2692C152.254 24.1853 152.238 24.0954 152.238 24.0047V9.1173C152.237 9.02663 152.254 8.93669 152.288 8.85275C152.322 8.76881 152.371 8.69257 152.434 8.62847C152.497 8.56436 152.572 8.51368 152.654 8.47941C152.737 8.44514 152.825 8.42796 152.914 8.42887H159.26C159.594 8.42887 159.907 8.44361 160.198 8.47308C160.489 8.50255 160.779 8.54706 161.07 8.60663C161.61 8.72763 162.117 8.97051 162.553 9.31739C163.009 9.67021 163.356 10.148 163.555 10.6949C163.832 11.4082 163.958 12.1727 163.926 12.9389C163.922 13.3036 163.855 13.6647 163.729 14.0061ZM155.966 15.0505H159.041C159.32 15.0566 159.597 14.9957 159.849 14.8728C160.067 14.7576 160.259 14.5988 160.416 14.406C160.572 14.2079 160.69 13.982 160.765 13.7397C160.842 13.5034 160.879 13.2555 160.874 13.0066C160.874 12.7706 160.829 12.5367 160.743 12.3177C160.664 12.104 160.546 11.9077 160.394 11.74C160.249 11.5806 160.079 11.4457 159.892 11.3403C159.698 11.2354 159.48 11.182 159.26 11.1849H155.967C155.878 11.184 155.79 11.2011 155.708 11.2354C155.625 11.2697 155.55 11.3204 155.487 11.3845C155.424 11.4486 155.375 11.5249 155.341 11.6089C155.307 11.6929 155.29 11.7829 155.291 11.8736V14.3618C155.29 14.4526 155.307 14.5426 155.341 14.6266C155.374 14.7106 155.424 14.7869 155.487 14.8511C155.55 14.9152 155.625 14.9659 155.708 15.0002C155.79 15.0345 155.878 15.0517 155.967 15.0507L155.966 15.0505ZM160.349 21.7379C160.588 21.6173 160.797 21.4424 160.959 21.2268C161.141 21.0188 161.282 20.7776 161.375 20.5161C161.481 20.2714 161.533 20.0058 161.528 19.7383C161.53 19.4795 161.478 19.2231 161.377 18.9858C161.275 18.7486 161.126 18.5357 160.939 18.361C160.56 17.9906 160.008 17.8054 159.282 17.8054H155.967C155.878 17.8044 155.79 17.8216 155.707 17.8559C155.625 17.8902 155.55 17.9409 155.487 18.005C155.424 18.0692 155.374 18.1455 155.341 18.2295C155.307 18.3135 155.29 18.4035 155.291 18.4943V21.2494C155.29 21.3401 155.307 21.4301 155.341 21.5141C155.374 21.5981 155.424 21.6744 155.487 21.7386C155.55 21.8028 155.625 21.8535 155.707 21.8878C155.79 21.922 155.878 21.9392 155.967 21.9383H159.609C159.869 21.9421 160.125 21.8728 160.349 21.7379Z" fill="#2A3042"/>
</svg>